<?xml version="1.0" encoding="utf-8"?>
<!-- Generator: Adobe Illustrator 22.1.0, SVG Export Plug-In . SVG Version: 6.00 Build 0)  -->
<svg version="1.1" id="Camada_1" xmlns="http://www.w3.org/2000/svg" xmlns:xlink="http://www.w3.org/1999/xlink" x="0px" y="0px"
	 viewBox="0 0 592 240" style="enable-background:new 0 0 592 240;" xml:space="preserve">
<style type="text/css">
	.st0{fill:#DFAA42;}
</style>
<g>
	<path class="st0" d="M212.1,113.1L212.1,113.1c-5.9,5.9-15.4,5.9-21.3,0l0,0c-5.9-5.9-5.9-15.4,0-21.3l0,0c5.9-5.9,15.4-5.9,21.3,0
		l0,0C218,97.7,218,107.4,212.1,113.1z"/>
	<path class="st0" d="M449.8,227L449.8,227c-5.9,5.9-15.4,5.9-21.3,0l0,0c-5.9-5.9-5.9-15.4,0-21.3l0,0c5.9-5.9,15.4-5.9,21.3,0l0,0
		C455.8,211.6,455.8,221.3,449.8,227z"/>
	<path class="st0" d="M34.4,227L34.4,227c-5.9,5.9-15.4,5.9-21.3,0l0,0c-5.9-5.9-5.9-15.4,0-21.3l0,0c5.9-5.9,15.4-5.9,21.3,0l0,0
		C40.4,211.6,40.4,221.3,34.4,227z"/>
	<path class="st0" d="M180.4,27.8L40.5,167.7c-8.8,8.8-8.8,23.1,0,31.9l0,0c8.8,8.8,23.1,8.8,31.9,0L212.5,59.5
		c8.8-8.8,23.1-8.8,31.9,0l0,0c8.8,8.8,8.8,23.1,0,31.9L142.6,193.4c-8.8,8.8-8.8,23.1,0,31.9l0,0c8.8,8.8,23.1,8.8,31.9,0
		l101.9-101.9c26.5-26.5,26.5-69.3,0-95.8l0,0C249.8,1.5,206.9,1.5,180.4,27.8z"/>
	<path class="st0" d="M467.6,28.4L319.6,176.5c-8.8,8.8-23.1,8.8-31.9,0l0,0c-8.8-8.8-8.8-23.1,0-31.9l98-98
		c8.8-8.8,8.8-23.1,0-31.9l0,0c-8.8-8.8-23.1-8.8-31.9,0L252.2,116.2c-26.5,26.5-26.5,69.3,0,95.8l0,0c26.5,26.5,69.3,26.5,95.8,0
		L499.7,60.2c8.8-8.8,23.1-8.8,31.9,0l0,0c8.8,8.8,8.8,23.1,0,31.9l-75.6,75.6c-8.8,8.8-8.8,23.1,0,31.9l0,0
		c8.8,8.8,23.1,8.8,31.9,0l75.6-75.6c26.5-26.5,26.5-69.3,0-95.8l0,0C537,1.9,494,1.9,467.6,28.4z"/>
</g>
</svg>
